<?xml version="1.0" standalone="no"?>
<!DOCTYPE svg PUBLIC "-//W3C//DTD SVG 20010904//EN"
 "http://www.w3.org/TR/2001/REC-SVG-20010904/DTD/svg10.dtd">
<svg version="1.0" xmlns="http://www.w3.org/2000/svg"
 width="1000.000000pt" height="1000.000000pt" viewBox="0 0 1000.000000 1000.000000"
 preserveAspectRatio="xMidYMid meet">
<metadata>
Created by potrace 1.16, written by Peter Selinger 2001-2019
</metadata>
<g transform="translate(0.000000,1000.000000) scale(0.100000,-0.100000)"
fill="#000000" stroke="none">
<path d="M0 5000 l0 -5000 5000 0 5000 0 0 5000 0 5000 -5000 0 -5000 0 0
-5000z m9750 0 l0 -4750 -4750 0 -4750 0 0 4750 0 4750 4750 0 4750 0 0 -4750z"/>
<path d="M8450 5000 l0 -3060 135 0 135 0 0 3060 0 3060 -135 0 -135 0 0
-3060z"/>
<path d="M7669 6921 c-13 -17 -34 -44 -47 -61 -21 -27 -29 -30 -81 -30 -32 0
-83 9 -115 20 -231 79 -600 106 -811 59 -370 -82 -670 -323 -822 -658 -23 -52
-47 -116 -54 -142 l-12 -47 -42 91 c-23 51 -54 112 -69 137 -152 241 -397 403
-701 461 -64 12 -1367 26 -1411 15 -62 -16 0 -59 110 -76 80 -13 116 -29 145
-66 28 -35 26 -69 -5 -135 -22 -45 -145 -172 -749 -774 -398 -396 -760 -756
-805 -800 l-81 -80 3 780 c4 772 4 781 26 846 46 138 154 221 318 243 27 4 58
14 69 22 19 14 19 16 3 28 -21 16 -741 29 -1054 19 l-205 -6 3 -25 c3 -23 10
-26 97 -44 112 -23 175 -53 225 -108 46 -51 70 -104 85 -191 15 -87 16 -3134
1 -3227 -32 -193 -126 -290 -318 -325 -83 -16 -102 -28 -86 -55 10 -16 57 -17
626 -20 650 -2 649 -2 632 42 -7 17 -20 21 -95 30 -155 18 -266 116 -311 278
-14 53 -24 1638 -10 1638 5 0 123 -129 263 -287 140 -157 259 -291 264 -297 6
-6 78 -87 160 -181 82 -93 154 -175 160 -181 5 -6 211 -238 456 -515 246 -278
459 -510 473 -517 20 -9 137 -12 442 -12 377 0 415 2 421 17 11 29 -30 48
-165 76 -250 52 -302 89 -598 422 -87 99 -173 196 -190 215 -18 19 -112 125
-209 235 -98 110 -192 216 -209 235 -17 19 -99 112 -181 205 -82 94 -154 175
-160 181 -14 15 -426 481 -508 574 l-65 75 41 38 c23 21 179 174 347 340 747
740 1129 1110 1226 1189 22 17 63 42 93 56 52 24 59 25 190 18 150 -7 229 -21
341 -60 214 -75 402 -252 487 -459 121 -293 119 -632 -5 -886 -51 -105 -166
-221 -277 -278 -173 -89 -330 -121 -647 -130 l-218 -6 0 -59 0 -58 53 0 c279
0 514 -109 728 -338 74 -80 180 -235 380 -559 264 -427 639 -998 671 -1021
l33 -24 520 5 c563 5 591 7 765 67 251 87 470 270 590 493 188 348 152 826
-81 1091 -102 116 -441 362 -724 526 -440 254 -536 317 -662 434 -184 171
-262 365 -249 621 15 299 117 512 310 649 214 152 462 192 706 114 262 -84
469 -300 541 -565 21 -80 42 -123 59 -123 26 0 31 87 28 470 -3 354 -5 395
-19 398 -9 2 -27 -11 -40 -27z m-1909 -1475 c0 -29 91 -197 148 -272 145 -192
285 -294 787 -574 235 -131 352 -204 464 -290 270 -207 375 -401 375 -690 0
-146 -15 -214 -75 -339 -32 -68 -56 -100 -122 -166 -93 -93 -178 -141 -312
-176 -110 -29 -376 -38 -490 -16 -191 36 -234 58 -313 162 -98 129 -326 478
-441 675 -271 464 -370 610 -514 753 -88 88 -167 152 -259 209 -56 34 -64 48
-27 48 30 0 200 60 274 97 102 51 180 110 265 200 88 93 146 187 192 311 29
80 48 106 48 68z"/>
</g>
</svg>
