<?xml version="1.0" standalone="no"?>
<!DOCTYPE svg PUBLIC "-//W3C//DTD SVG 20010904//EN"
 "http://www.w3.org/TR/2001/REC-SVG-20010904/DTD/svg10.dtd">
<svg version="1.0" xmlns="http://www.w3.org/2000/svg"
 width="300.000000pt" height="300.000000pt" viewBox="0 0 300.000000 300.000000"
 preserveAspectRatio="xMidYMid meet">
<metadata>
Created by potrace 1.16, written by Peter Selinger 2001-2019
</metadata>
<g transform="translate(0.000000,300.000000) scale(0.100000,-0.100000)"
fill="#000000" stroke="none">
<path d="M0 1500 l0 -1500 1500 0 1500 0 0 1500 0 1500 -1500 0 -1500 0 0
-1500z m2920 0 l0 -1420 -1420 0 -1420 0 0 1420 0 1420 1420 0 1420 0 0 -1420z"/>
<path d="M2530 1500 l0 -920 45 0 45 0 0 920 0 920 -45 0 -45 0 0 -920z"/>
<path d="M2290 2068 c-16 -20 -16 -20 -87 -3 -51 12 -98 16 -160 13 -76 -3
-96 -9 -151 -38 -71 -37 -123 -92 -155 -161 l-21 -47 -19 37 c-28 53 -76 99
-132 128 -42 22 -71 27 -181 35 -242 16 -430 -1 -302 -28 84 -18 77 -30 -196
-303 l-247 -246 3 247 c3 243 3 247 27 271 12 14 39 29 58 34 80 19 34 28
-154 31 -154 2 -193 0 -193 -11 0 -7 20 -18 45 -25 84 -22 80 3 80 -568 0
-494 0 -503 -21 -531 -12 -15 -39 -34 -62 -41 -23 -8 -42 -18 -42 -23 0 -5 85
-9 195 -9 121 0 195 4 195 10 0 5 -12 12 -28 16 -99 21 -103 34 -100 329 l3
236 260 -295 260 -295 133 -1 c102 0 133 3 130 12 -3 7 -23 16 -46 20 -22 4
-54 14 -71 22 -24 13 -549 590 -559 615 -1 4 110 116 248 249 l250 242 53 0
c174 0 282 -111 280 -290 -1 -102 -38 -171 -113 -210 -44 -22 -135 -40 -207
-40 -45 0 -53 -3 -53 -19 0 -15 10 -19 54 -24 111 -11 176 -66 280 -233 37
-60 102 -162 145 -227 l76 -118 185 3 c176 3 188 4 241 29 69 33 134 95 162
158 31 65 30 198 -1 257 -28 54 -100 116 -212 184 -265 161 -301 197 -308 306
-6 87 13 149 61 201 119 130 335 75 393 -99 8 -26 20 -48 25 -48 5 0 9 60 9
135 0 74 -3 135 -7 135 -5 -1 -15 -10 -23 -22z m-468 -573 c24 -20 95 -66 158
-102 150 -84 213 -133 245 -187 66 -112 28 -258 -79 -307 -42 -19 -172 -25
-226 -10 -32 9 -99 99 -196 263 -81 135 -135 204 -196 248 l-37 27 37 11 c82
25 164 100 187 171 7 22 9 20 36 -27 15 -27 47 -66 71 -87z"/>
</g>
</svg>
